# xmcd
#
# Track frame offsets: 
#        150
#        31399
#        46761
#        65259
#        80580
#        106842
#        127247
#        152629
#        164933
#        181012
#        201717
#        219125
#
# Disc length: 3244 seconds
#
# Revision: 0
# Processed by: cddbd v1.5.2PL0 Copyright (c) Steve Scherf et al.
# Submitted via: ExactAudioCopy v0.99pb4
#
DISCID=a60caa0c
DTITLE=Братья Жигновские - Где-то на земле...
DYEAR=2004
DGENRE=шансон
TTITLE0=Покаяние
TTITLE1=Всё мне мерещится
TTITLE2=Лихо
TTITLE3=О звёздах
TTITLE4=Холодает...
TTITLE5=Рупь за сто...
TTITLE6=Участковый рок
TTITLE7=Ветер в деревьях шумит...
TTITLE8=Расстроили август...
TTITLE9=Коралл
TTITLE10=Колечко
TTITLE11=Задымился вечер...
EXTD=
EXTT0=
EXTT1=
EXTT2=
EXTT3=
EXTT4=
EXTT5=
EXTT6=
EXTT7=
EXTT8=
EXTT9=
EXTT10=
EXTT11=
PLAYORDER=
